<?xml version="1.0" standalone="no"?>
<!DOCTYPE svg PUBLIC "-//W3C//DTD SVG 20010904//EN"
 "http://www.w3.org/TR/2001/REC-SVG-20010904/DTD/svg10.dtd">
<svg version="1.0" xmlns="http://www.w3.org/2000/svg"
 width="40.000000pt" height="40.000000pt" viewBox="0 0 40.000000 40.000000"
 preserveAspectRatio="xMidYMid meet">

<g transform="translate(0.000000,40.000000) scale(0.100000,-0.100000)"
fill="#000000" stroke="none">
<path d="M162 357 c-57 -32 -75 -111 -43 -197 20 -58 37 -73 48 -45 4 12 -2
23 -17 35 -19 14 -24 30 -28 77 -4 53 -1 62 23 91 18 21 36 32 53 32 37 0 49
-10 72 -56 20 -40 28 -26 10 20 -9 24 -56 56 -82 56 -7 -1 -23 -6 -36 -13z"/>
<path d="M160 241 c0 -20 4 -21 48 -15 57 7 96 -9 136 -56 51 -61 21 -120 -62
-121 -42 0 -44 -1 -22 -10 32 -13 96 5 110 31 5 10 10 35 10 54 0 64 -64 110
-182 131 -34 7 -38 5 -38 -14z"/>
<path d="M45 170 c-46 -88 15 -157 117 -130 72 20 177 151 109 138 -9 -2 -16
-12 -17 -23 -2 -36 -16 -55 -59 -80 -57 -34 -107 -33 -134 1 -26 33 -26 54 -1
87 22 28 25 37 10 37 -5 0 -16 -13 -25 -30z"/>
</g>
</svg>
