<?xml version="1.0" standalone="no"?>
<!DOCTYPE svg PUBLIC "-//W3C//DTD SVG 20010904//EN"
 "http://www.w3.org/TR/2001/REC-SVG-20010904/DTD/svg10.dtd">
<svg version="1.0" xmlns="http://www.w3.org/2000/svg"
 width="64.000000pt" height="64.000000pt" viewBox="0 0 64.000000 64.000000"
 preserveAspectRatio="xMidYMid meet">

<g transform="translate(0.000000,64.000000) scale(0.100000,-0.100000)"
fill="#000000" stroke="none">
<path d="M282 564 c-32 -16 -62 -58 -62 -87 0 -7 -10 -19 -22 -26 -43 -23 -63
-62 -63 -121 0 -65 26 -109 79 -134 43 -20 173 -22 221 -2 84 36 100 154 27
213 -8 7 -15 31 -16 58 -3 85 -89 137 -164 99z m79 -25 c17 -9 20 -19 18 -69
-2 -55 0 -61 29 -88 47 -44 47 -102 1 -144 -25 -24 -38 -28 -90 -28 -110 0
-167 49 -156 134 4 32 14 49 46 76 23 20 41 42 41 51 0 22 29 59 54 69 29 12
34 12 57 -1z"/>
<path d="M307 424 c-4 -4 -7 -21 -7 -37 0 -24 -3 -28 -17 -22 -40 16 -53 17
-53 3 0 -8 16 -22 35 -31 31 -15 35 -21 35 -54 0 -21 5 -45 10 -53 9 -13 12
-13 21 3 5 9 28 26 51 38 29 15 37 24 29 32 -7 7 -18 7 -36 -1 -14 -7 -28 -12
-30 -12 -2 0 -5 30 -7 67 -3 61 -14 84 -31 67z"/>
<path d="M306 154 c-9 -24 -7 -67 4 -84 9 -13 11 -13 20 0 17 26 10 100 -10
100 -4 0 -11 -7 -14 -16z"/>
</g>
</svg>
