<svg version="1.1" id="Layer_1" xmlns="http://www.w3.org/2000/svg" xmlns:xlink="http://www.w3.org/1999/xlink" x="0px" y="0px"
	 width="100%" viewBox="0 0 400 400" enable-background="new 0 0 400 400" xml:space="preserve">
<path fill="#000000" opacity="1.000000" stroke="none" 
	d="
M401.000000,136.000000 
	C401.000000,224.666672 401.000000,312.833344 401.000000,401.000000 
	C267.666656,401.000000 134.333328,401.000000 1.000000,401.000000 
	C1.000000,267.666656 1.000000,134.333328 1.000000,1.000000 
	C134.333328,1.000000 267.666656,1.000000 401.000000,1.000000 
	C401.000000,45.833332 401.000000,90.666664 401.000000,136.000000 
M124.604004,41.027538 
	C108.238731,48.802227 93.446091,58.946354 80.258766,71.308655 
	C62.522118,87.935646 48.817425,107.434746 38.643223,129.601074 
	C29.267960,150.026779 24.612141,171.501068 23.162271,193.675934 
	C22.496511,203.858337 23.688564,214.159363 23.983803,224.408157 
	C24.379133,238.131607 27.460337,251.378799 31.776220,264.277466 
	C42.266926,295.630493 59.404057,322.631470 84.703865,344.323547 
	C99.428955,356.948792 115.523277,367.143127 133.324112,374.801453 
	C154.739197,384.014740 177.246246,387.970123 200.347702,388.914490 
	C207.072525,389.189392 213.876190,388.650482 220.585114,387.935059 
	C230.428848,386.885345 240.396988,386.103577 250.001755,383.871918 
	C285.918854,375.526489 316.308411,357.620148 341.313232,330.339752 
	C355.702026,314.641541 366.854950,297.108612 375.142548,277.556335 
	C383.979370,256.708282 388.210480,234.884445 388.840790,212.430344 
	C389.144104,201.626587 387.856995,190.758194 386.967468,179.945618 
	C385.621643,163.587112 380.876190,148.107697 374.554352,133.013046 
	C363.143799,105.768082 346.019043,82.701180 323.320557,64.002838 
	C304.650177,48.622765 283.668701,37.178699 260.211334,30.584553 
	C256.387634,29.509670 252.764587,27.738939 248.980515,26.498007 
	C246.916199,25.821033 244.723557,25.452366 242.559006,25.200331 
	C241.532959,25.080858 240.409225,25.832163 239.377289,25.726179 
	C231.112869,24.877403 222.881409,23.521120 214.599045,23.070063 
	C193.537354,21.923042 172.726501,24.130180 152.524231,30.149929 
	C143.226196,32.920502 134.408691,37.303707 124.604004,41.027538 
z"/>
<path fill="#FBFBFB" opacity="1.000000" stroke="none" 
	d="
M124.988647,40.991608 
	C134.408691,37.303707 143.226196,32.920502 152.524231,30.149929 
	C172.726501,24.130180 193.537354,21.923042 214.599045,23.070063 
	C222.881409,23.521120 231.112869,24.877403 239.377289,25.726179 
	C240.409225,25.832163 241.532959,25.080858 242.559006,25.200331 
	C244.723557,25.452366 246.916199,25.821033 248.980515,26.498007 
	C252.764587,27.738939 256.387634,29.509670 260.211334,30.584553 
	C283.668701,37.178699 304.650177,48.622765 323.320557,64.002838 
	C346.019043,82.701180 363.143799,105.768082 374.554352,133.013046 
	C380.876190,148.107697 385.621643,163.587112 386.967468,179.945618 
	C387.856995,190.758194 389.144104,201.626587 388.840790,212.430344 
	C388.210480,234.884445 383.979370,256.708282 375.142548,277.556335 
	C366.854950,297.108612 355.702026,314.641541 341.313232,330.339752 
	C316.308411,357.620148 285.918854,375.526489 250.001755,383.871918 
	C240.396988,386.103577 230.428848,386.885345 220.585114,387.935059 
	C213.876190,388.650482 207.072525,389.189392 200.347702,388.914490 
	C177.246246,387.970123 154.739197,384.014740 133.324112,374.801453 
	C115.523277,367.143127 99.428955,356.948792 84.703865,344.323547 
	C59.404057,322.631470 42.266926,295.630493 31.776220,264.277466 
	C27.460337,251.378799 24.379133,238.131607 23.983803,224.408157 
	C23.688564,214.159363 22.496511,203.858337 23.162271,193.675934 
	C24.612141,171.501068 29.267960,150.026779 38.643223,129.601074 
	C48.817425,107.434746 62.522118,87.935646 80.258766,71.308655 
	C93.446091,58.946354 108.238731,48.802227 124.988647,40.991608 
M311.395447,82.614380 
	C310.960236,82.766136 310.524994,82.917900 309.402802,83.052116 
	C308.249390,84.344200 307.095978,85.636284 305.374451,87.349701 
	C304.412201,87.846558 303.449982,88.343407 302.487732,88.840263 
	C302.848541,89.330490 303.209320,89.820717 303.570129,90.310944 
	C307.907562,89.512848 312.278595,88.861046 316.573120,87.875938 
	C320.958527,86.869972 325.268829,85.536758 329.507874,84.375328 
	C324.816193,80.077881 317.232758,79.415520 311.989777,82.995377 
	C311.989777,82.995377 312.017334,82.921997 311.395447,82.614380 
M139.913666,160.392014 
	C139.525818,161.053909 138.680939,162.178085 138.815704,162.311325 
	C145.382874,168.803726 156.916290,167.125320 160.314606,159.664276 
	C155.202637,159.135696 150.150848,158.613327 144.421997,157.937103 
	C143.159668,158.707352 141.897339,159.477600 139.913666,160.392014 
M272.825867,166.000702 
	C272.328522,167.602966 271.831146,169.205246 271.480804,171.632126 
	C272.243164,178.336639 276.856232,182.419525 281.537079,187.189026 
	C282.810699,177.594879 280.539368,169.805161 274.466339,162.711670 
	C274.021576,163.927032 273.696075,164.816483 272.825867,166.000702 
M236.271301,138.046036 
	C226.087738,134.286209 220.990814,136.496979 216.658539,146.478516 
	C224.931717,148.805984 230.502029,142.237015 237.420288,139.998901 
	C237.486420,139.977509 237.147003,138.702515 237.513779,137.245712 
	C239.168427,137.819794 240.823074,138.393875 242.889847,139.110962 
	C242.501419,133.098770 244.798477,126.831734 237.172913,123.273872 
	C237.025955,125.769646 236.901443,127.884117 236.771988,130.082657 
	C236.037323,129.478119 235.569321,129.092987 235.101288,128.707870 
	C234.815033,129.485077 234.118362,130.391602 234.315277,131.016586 
	C235.071976,133.418106 236.115021,135.729401 236.271301,138.046036 
M310.297302,168.950119 
	C308.962555,170.931442 307.627808,172.912766 306.212708,175.013428 
	C317.519012,175.896439 325.099823,172.120346 328.725403,163.862488 
	C325.025726,164.286270 321.309296,164.319763 317.829102,165.243378 
	C315.354462,165.900131 313.198120,167.756348 310.952393,169.034027 
	C310.952393,169.034027 310.992828,168.979187 310.297302,168.950119 
M359.063812,167.879684 
	C355.085785,168.993240 351.116791,170.140289 347.127747,171.212921 
	C340.268738,173.057266 333.366669,174.750290 326.549835,176.737289 
	C324.534576,177.324661 322.745117,178.686447 320.852173,179.693375 
	C320.992889,180.115845 321.133575,180.538315 321.274292,180.960785 
	C323.183289,180.960785 325.092316,180.960785 327.150604,181.728638 
	C330.438202,182.105255 333.725800,182.481888 337.812378,183.082138 
	C347.860687,182.031067 355.547943,177.268494 361.032745,168.065781 
	C360.977325,167.817215 360.921906,167.568649 360.866486,167.320068 
	C360.516602,167.482758 360.166748,167.645447 359.063812,167.879684 
M171.969910,79.280571 
	C174.556839,77.354042 177.143768,75.427513 180.277908,73.093460 
	C173.059372,71.590439 169.368393,75.457489 165.095230,79.954247 
	C149.279892,80.411842 134.325790,84.939117 119.441628,89.994102 
	C129.156845,83.107208 138.297043,75.423218 150.154144,72.814110 
	C175.865234,67.156494 201.451447,68.047607 225.543823,78.658806 
	C249.671814,89.285706 273.085358,101.756844 282.257782,129.554016 
	C282.771545,131.111008 283.620483,132.626266 284.600128,133.948517 
	C288.392639,139.067291 292.301331,144.099991 296.166779,149.164734 
	C296.797485,148.767395 297.428162,148.370056 298.058868,147.972717 
	C291.073120,139.068756 286.334076,129.158722 283.944366,118.055145 
	C283.944366,118.055145 284.191589,117.803352 284.891113,117.844704 
	C293.272766,123.412476 302.090759,128.044479 312.100281,130.338135 
	C311.224823,128.934509 310.028229,128.017700 308.815521,127.122734 
	C303.063049,122.877457 296.967499,119.021774 291.628448,114.308784 
	C283.142731,106.818146 275.184784,98.731476 266.960510,90.942459 
	C251.993286,76.767365 235.246094,65.673714 214.819702,60.982044 
	C214.418289,60.889843 214.095123,60.456978 213.159668,59.744556 
	C229.627579,59.886806 244.959000,62.685673 260.148529,67.377663 
	C259.011719,65.901405 257.706818,64.809937 256.207458,64.185524 
	C226.615463,51.862041 196.078781,48.563236 164.722000,55.482342 
	C81.887077,73.760483 29.669638,151.105667 42.823620,235.732086 
	C57.562782,330.556793 156.582031,390.951569 247.506577,360.695496 
	C262.338867,355.759949 275.875793,348.430817 288.917511,340.779358 
	C288.336151,342.201630 287.754791,343.623871 287.181915,345.025452 
	C288.973236,345.903168 290.541687,346.671661 292.204803,347.486511 
	C293.084167,345.708252 293.904236,344.049927 294.698547,342.443634 
	C292.921112,341.455444 291.371643,340.593964 290.192993,339.082367 
	C309.037415,324.389526 325.061340,307.371338 335.202606,285.514465 
	C327.055328,294.235992 319.554565,303.547760 311.155457,311.962921 
	C302.850830,320.283417 293.730591,327.834229 282.479248,332.087524 
	C284.038086,328.904724 286.098846,326.314697 287.895386,323.552795 
	C289.707367,320.767151 291.385498,317.875793 292.883850,314.910278 
	C294.261078,312.184570 295.321106,309.298553 296.520874,306.483124 
	C296.006439,306.221802 295.491974,305.960480 294.977539,305.699158 
	C284.511688,324.063049 270.366943,338.891541 250.796387,346.737488 
	C231.439041,354.497925 210.855469,354.995789 190.190826,352.287659 
	C190.568909,351.547241 191.033920,351.150452 191.556412,351.048615 
	C211.598572,347.141937 227.890152,336.511108 242.114868,322.435638 
	C255.150284,309.537018 269.888062,299.125580 286.233826,290.932770 
	C287.834961,290.130249 289.723633,289.901337 290.946869,289.556274 
	C299.610565,280.827026 311.938171,275.383118 314.778412,261.846619 
	C302.901337,275.969086 286.543732,282.269714 270.103302,287.589935 
	C270.550720,286.752319 270.998138,285.914673 271.546661,284.887787 
	C269.809570,284.093231 268.268707,283.388428 266.740295,282.689301 
	C265.919983,284.277893 265.257141,285.561523 264.609589,286.815552 
	C265.592346,287.826630 266.561768,288.824036 266.813171,290.095276 
	C258.484344,295.391663 250.046341,300.526367 241.870102,306.048676 
	C237.394058,309.071838 233.360306,312.749908 228.807953,315.810303 
	C228.807953,315.810303 228.473663,315.503723 228.702469,314.848083 
	C233.218384,305.200134 237.800156,295.582336 242.232941,285.896362 
	C247.324722,274.770416 253.044235,264.094055 262.341949,255.782913 
	C262.701447,255.461533 262.774811,254.819992 263.122314,253.992325 
	C262.084106,254.080521 261.527313,253.971359 261.167053,254.188416 
	C260.173523,254.787003 259.075012,255.364517 258.347961,256.228119 
	C252.586075,263.072021 246.050842,269.455566 241.394882,276.994415 
	C234.676102,287.873322 229.477554,299.680603 223.371216,310.951324 
	C217.417938,321.939514 208.733093,330.579803 197.396164,335.590790 
	C179.187592,343.639069 160.269302,343.775726 141.282837,338.016571 
	C141.016342,337.935760 140.874771,337.443146 140.480728,336.850861 
	C157.274323,338.415558 173.172012,336.750061 187.799774,328.574127 
	C212.148514,314.964813 223.633728,293.794891 223.812225,266.196075 
	C223.819550,265.061798 222.933151,263.921753 222.034393,261.746887 
	C215.444473,287.378967 206.817871,302.950226 199.712769,303.594849 
	C200.708542,298.734131 201.731964,293.738434 202.755386,288.742737 
	C202.286331,288.630280 201.817276,288.517853 201.348206,288.405396 
	C201.151733,288.950562 200.859970,289.480927 200.772598,290.043030 
	C197.807266,309.120056 179.962646,320.486755 163.027283,322.296112 
	C138.561707,324.909973 117.637413,316.652191 99.592766,300.926758 
	C70.532211,275.601288 61.319027,242.509338 62.877266,205.136276 
	C63.341343,194.005829 68.024185,185.798874 75.671532,178.627335 
	C90.055740,165.138123 107.271675,160.117950 127.925117,161.937134 
	C113.214966,155.486526 99.733452,159.066071 86.098694,161.743134 
	C93.742905,157.485992 101.646263,154.116699 109.317932,150.283691 
	C117.936859,145.977402 126.520775,141.541672 134.766983,136.576111 
	C138.384079,134.398041 141.126556,130.767502 144.266174,127.796486 
	C143.927734,127.373672 143.589310,126.950859 143.250870,126.528046 
	C141.261581,127.773705 139.411545,129.387863 137.258911,130.201233 
	C127.938469,133.723038 118.654694,137.428513 109.122826,140.283401 
	C95.663887,144.314499 82.126167,147.982071 70.052719,155.861160 
	C73.642029,147.552795 75.241150,138.470459 82.921318,132.592438 
	C98.520683,120.653419 115.705719,111.986313 135.051788,108.455719 
	C162.229736,103.495819 186.662643,107.241173 203.237213,132.645386 
	C203.296036,132.735535 203.554810,132.695236 204.577881,132.822861 
	C203.841644,130.741928 203.479324,128.875122 202.582016,127.316277 
	C195.971893,115.832848 186.151199,108.256607 173.687515,104.009392 
	C158.495560,98.832489 143.199661,99.781761 127.856697,103.261459 
	C126.694138,103.525116 125.450943,103.433205 124.245239,103.506577 
	C143.414444,93.311501 174.412933,89.479507 200.169418,97.171684 
	C233.352219,107.081726 255.058731,129.053604 266.753845,163.014084 
	C267.768372,152.737549 264.250183,144.997971 261.592133,136.859207 
	C263.150787,137.756256 264.499146,138.817871 265.369415,140.184052 
	C270.290497,147.909058 275.056641,155.732590 279.953735,163.473129 
	C284.855133,171.220505 290.909882,177.740677 299.657104,181.227524 
	C300.671173,181.631760 301.795654,181.758957 302.868958,182.014587 
	C302.760315,180.492035 302.349030,179.731506 301.715179,179.410721 
	C293.900360,175.455795 289.079071,168.748932 285.009491,161.353210 
	C281.557526,155.079895 278.321259,148.682098 274.703217,142.507172 
	C267.632690,130.439804 257.715546,120.896706 247.816284,111.621674 
	C255.121185,113.549782 262.417572,113.537079 271.187531,111.519890 
	C267.068878,109.034370 264.190216,106.744377 260.918457,105.441711 
	C254.751740,102.986374 248.454254,106.274246 246.461411,111.974617 
	C244.968811,110.937187 243.278625,110.097031 242.014862,108.831139 
	C231.865280,98.664543 220.019516,91.183182 206.900864,85.461571 
	C208.222458,84.468651 209.544052,83.475731 211.180344,82.246384 
	C206.604706,79.434006 204.469482,81.600296 201.945206,84.627953 
	C191.904068,83.078682 181.862930,81.529411 171.969910,79.280571 
M175.808792,227.388412 
	C175.479034,232.493622 174.409805,237.682480 174.975830,242.686356 
	C176.101639,252.638885 182.471069,256.204193 191.657120,252.098221 
	C196.880524,249.763489 201.568817,246.231552 206.332382,243.339371 
	C210.275040,245.966766 214.185165,249.148483 218.576691,251.384857 
	C229.301773,256.846558 236.709335,252.540863 237.261703,240.574814 
	C237.496460,235.489609 236.839005,230.363220 236.575134,225.014084 
	C237.685623,224.594711 238.970627,224.250687 240.121017,223.649185 
	C243.939590,221.652527 248.003906,219.962204 251.439148,217.429077 
	C259.397461,211.560715 259.289124,204.151215 251.363083,198.166580 
	C248.996643,196.379807 246.287201,195.000824 243.613464,193.681076 
	C241.132401,192.456467 238.489258,191.560257 236.433807,190.728409 
	C236.691223,184.863571 237.483917,179.518585 237.041000,174.278030 
	C236.085281,162.969940 229.085068,159.104935 219.000504,164.254837 
	C214.332474,166.638687 210.157944,169.988953 206.061447,172.701263 
	C201.435226,169.756912 197.064468,166.359436 192.190201,164.003922 
	C182.690094,159.412949 176.017227,163.086212 174.867233,173.530594 
	C174.259048,179.054291 174.759613,184.700058 174.759613,190.423935 
	C170.302673,192.894775 164.586899,195.325684 159.740204,198.926376 
	C152.775665,204.100479 152.670273,211.016083 159.383713,216.531281 
	C163.159958,219.633499 167.935501,221.511108 172.225922,224.000641 
	C173.537582,224.761734 174.733124,225.722961 175.808792,227.388412 
M297.768768,197.724335 
	C303.608734,203.460831 309.824219,204.884842 316.147644,201.823517 
	C309.132904,195.664276 306.632568,184.063370 293.810455,184.269363 
	C295.031158,188.739532 296.179504,192.944824 297.768768,197.724335 
M276.988068,44.090767 
	C265.286224,41.579288 262.121368,41.602509 253.609161,57.077152 
	C264.864685,59.411240 271.489899,49.730553 280.753052,46.806637 
	C280.556549,46.376682 280.508057,45.998161 280.302582,45.868668 
	C279.462585,45.339302 278.574646,44.885990 276.988068,44.090767 
M298.696411,94.662033 
	C292.131042,90.172722 285.294037,90.110222 277.790100,93.449295 
	C286.604218,98.996353 295.544128,102.249565 306.660858,100.727730 
	C303.716156,98.474304 301.511658,96.787292 298.696411,94.662033 
M313.459961,108.730446 
	C308.222778,109.548607 302.985596,110.366768 297.748413,111.184929 
	C308.698273,118.296738 319.147949,118.078079 326.912933,111.668091 
	C322.612061,110.660103 318.484619,109.692772 313.459961,108.730446 
M124.407646,151.998932 
	C123.950592,152.909348 123.493538,153.819763 122.965721,154.871140 
	C135.138550,155.952530 142.274841,153.335968 146.779099,146.046127 
	C143.121567,146.046127 139.693375,145.995529 136.267288,146.058578 
	C131.701385,146.142624 127.620117,147.330780 124.407646,151.998932 
M103.544189,134.019196 
	C105.716896,130.772766 107.889603,127.526352 110.058250,124.286003 
	C101.363075,122.028412 92.863342,128.911316 94.500404,141.774246 
	C97.651733,139.155396 100.390739,136.879196 103.544189,134.019196 
M87.885612,180.299957 
	C86.952255,180.477783 86.018890,180.655609 84.981758,180.853195 
	C91.581055,192.902420 102.296944,192.063934 106.882050,185.284943 
	C100.723976,183.579056 94.706871,181.912231 87.885612,180.299957 
M259.362427,164.347519 
	C256.721466,171.455185 257.267365,178.030212 262.577850,184.311737 
	C263.691559,181.032776 264.803345,178.261536 265.566711,175.397415 
	C266.788635,170.812561 266.156860,166.547745 262.800781,162.904160 
	C261.165222,161.128494 260.156403,161.110977 259.362427,164.347519 
M127.063789,119.942627 
	C125.355034,119.769424 123.502762,119.081871 121.962273,119.511719 
	C115.155441,121.411049 112.822731,126.016708 112.894608,138.338165 
	C116.465271,134.547195 119.412598,131.811249 121.865723,128.687256 
	C123.777794,126.252266 125.075157,123.334572 127.063789,119.942627 
M143.757462,113.104187 
	C144.238297,112.540588 144.719116,111.976997 145.302750,111.292900 
	C134.813232,108.570869 129.214737,115.148834 131.676331,127.497589 
	C133.243683,126.292038 134.915604,125.464951 135.930038,124.135971 
	C138.515839,120.748444 140.808060,117.136810 143.757462,113.104187 
M212.440262,134.226807 
	C212.103546,135.408813 211.766846,136.590836 211.363068,138.008270 
	C218.199936,136.307205 221.265625,133.886780 228.311081,124.695251 
	C225.891907,124.435570 223.765228,123.897697 221.686356,124.043129 
	C215.836334,124.452385 212.172073,128.414948 212.440262,134.226807 
M247.964874,147.658447 
	C246.673431,154.733276 249.262787,159.599747 255.438446,161.557114 
	C254.178940,154.783325 258.670349,147.296188 252.533127,141.005173 
	C251.139145,143.059036 249.781998,145.058594 247.964874,147.658447 
M309.272858,147.431396 
	C314.707092,147.677460 320.141327,147.923523 326.611450,148.216492 
	C323.710785,143.103943 320.424774,140.203217 316.212463,140.421036 
	C312.463531,140.614914 308.814056,142.732437 304.346832,144.266754 
	C306.416809,145.629654 307.510040,146.349457 309.272858,147.431396 
M237.800217,35.216438 
	C239.352783,34.280121 241.015121,33.479694 242.412292,32.351021 
	C243.126968,31.773678 243.366837,30.608551 243.821289,29.709082 
	C242.944855,29.579027 242.018280,29.195593 241.199661,29.357641 
	C231.802475,31.217878 224.898926,36.026623 221.927032,46.732456 
	C228.638245,44.467064 232.337891,39.175545 237.800217,35.216438 
M155.520111,121.223900 
	C160.562576,121.223900 165.605042,121.223900 171.068787,121.223900 
	C169.916336,116.900543 167.071152,114.437897 162.985672,113.403259 
	C157.374527,111.982262 154.956848,116.302704 151.716354,119.911850 
	C152.939667,120.360413 153.842651,120.691521 155.520111,121.223900 
M324.487061,193.867035 
	C327.140808,193.275604 329.794525,192.684158 332.908691,191.990112 
	C322.605682,183.621414 319.909943,182.818024 313.885803,186.176849 
	C314.996796,187.143600 316.046173,188.056763 317.144775,189.012741 
	C316.328705,189.636597 315.791534,190.047256 314.487671,191.044006 
	C318.088287,192.148788 320.881042,193.005707 324.487061,193.867035 
M272.346069,77.167496 
	C275.189423,87.184425 281.235596,89.740059 288.297913,84.018082 
	C286.045776,82.205803 284.015991,79.858154 281.449402,78.697372 
	C278.579254,77.399315 275.222473,77.177383 272.346069,77.167496 
M87.958069,196.210968 
	C88.355988,195.277222 88.753899,194.343475 89.236847,193.210175 
	C82.327217,192.336395 75.883820,189.873459 69.594543,193.826950 
	C74.869560,200.656723 80.956902,201.632156 87.958069,196.210968 
M196.295761,33.123306 
	C192.655441,31.697004 189.015121,30.270704 185.374817,28.844402 
	C185.333649,29.179035 185.292496,29.513666 185.251343,29.848299 
	C190.956161,35.904968 196.660980,41.961639 203.201019,48.905037 
	C201.981903,42.465309 201.729279,37.063576 196.295761,33.123306 
M327.889771,134.162628 
	C327.186981,134.722519 326.484192,135.282394 325.505859,136.061813 
	C333.034271,137.242249 340.045715,138.341629 346.992401,139.430862 
	C344.649292,131.374481 336.515472,128.834366 327.889771,134.162628 
M304.702240,71.528000 
	C296.836609,68.290665 290.055481,70.351372 283.552460,75.607483 
	C292.689484,75.607483 301.410858,75.607483 310.132233,75.607483 
	C310.226532,75.305336 310.320831,75.003189 310.415131,74.701035 
	C308.752411,73.733459 307.089722,72.765884 304.702240,71.528000 
M125.810455,173.250259 
	C130.692566,178.372910 135.536652,178.766586 140.690369,174.459579 
	C127.076164,165.985046 127.076164,165.985046 123.589783,166.792694 
	C124.300774,168.739105 125.014359,170.692596 125.810455,173.250259 
M103.447632,173.254730 
	C103.591423,176.536057 106.069702,177.145798 108.546234,177.449478 
	C112.243126,177.902817 115.513351,177.001450 118.117355,173.757751 
	C112.023987,171.485229 107.286339,165.380341 98.818367,169.924484 
	C100.478737,171.048340 101.700638,171.875427 103.447632,173.254730 
M231.842361,91.460655 
	C231.853302,96.508141 236.088287,99.684212 241.926544,99.023415 
	C238.375305,86.526733 237.320663,85.147575 231.492935,85.236969 
	C231.737198,87.115166 231.983047,89.005501 231.842361,91.460655 
M209.150131,116.815239 
	C208.653595,119.116318 208.157059,121.417404 207.660690,123.717705 
	C215.797424,124.974747 219.015625,120.591614 217.454498,109.175179 
	C214.476990,111.777664 211.977951,113.961960 209.150131,116.815239 
M326.466278,120.872864 
	C325.287384,122.342506 324.108490,123.812149 322.929596,125.281799 
	C323.131714,125.708252 323.333832,126.134712 323.535980,126.561172 
	C330.059631,125.173523 336.583252,123.785873 344.094086,122.188248 
	C337.983368,117.784195 332.693054,117.043358 326.466278,120.872864 
M291.960449,152.719833 
	C291.615021,161.963882 292.711182,164.202194 298.706940,166.281052 
	C298.975189,163.799576 299.304382,161.352158 299.490631,158.893921 
	C299.786102,154.994125 298.024780,152.174011 294.519897,150.626343 
	C293.960297,150.379227 292.822662,151.441025 291.960449,152.719833 
M192.661148,108.604568 
	C195.143723,110.903313 197.626312,113.202057 201.008850,116.334114 
	C200.910599,103.067429 199.753845,100.797096 193.259140,99.235428 
	C192.919861,102.135902 192.580139,105.040154 192.661148,108.604568 
M257.001160,77.440720 
	C258.421936,82.094299 261.313049,84.773155 266.469391,84.803909 
	C265.058899,72.353905 265.058899,72.353905 259.815735,71.003822 
	C258.896515,72.921608 257.999268,74.793571 257.001160,77.440720 
M187.886169,49.061241 
	C189.022293,49.061241 190.158432,49.061241 191.894135,49.061241 
	C183.342682,42.306599 177.427307,41.366394 171.833359,45.424675 
	C176.906967,46.598312 182.020828,47.781261 187.886169,49.061241 
M274.420471,64.022362 
	C277.544250,64.241722 280.668030,64.461082 284.108124,64.702652 
	C278.635864,58.570892 272.533905,58.097317 265.768158,63.496643 
	C268.721283,63.695042 271.115784,63.855907 274.420471,64.022362 
M244.731613,43.042515 
	C240.370499,45.629265 236.009384,48.216019 231.648270,50.802769 
	C237.336792,52.331409 243.821991,48.812519 247.937134,43.201790 
	C247.030823,43.089001 246.263977,42.993565 244.731613,43.042515 
M183.977875,305.645294 
	C184.601212,304.727875 185.224548,303.810425 185.839462,302.905396 
	C183.421753,301.672028 181.289902,300.584473 179.125870,299.480530 
	C177.921051,301.771545 176.746124,304.005707 175.653168,306.083984 
	C178.112823,307.328369 180.277557,308.423553 182.507446,309.551697 
	C182.896637,308.458740 183.283203,307.373169 183.977875,305.645294 
M209.832886,47.312473 
	C215.052475,41.515923 215.012299,37.135960 209.923477,33.698936 
	C209.651367,36.331097 209.281052,39.068329 209.113983,41.817905 
	C208.997116,43.741482 209.158005,45.681931 209.832886,47.312473 
M327.272278,100.906860 
	C328.081787,100.653572 328.891266,100.400284 330.130249,100.012611 
	C323.024536,96.300430 317.599091,97.377983 315.050140,103.139679 
	C319.101135,102.401253 322.794525,101.728012 327.272278,100.906860 
M189.555725,79.916328 
	C193.292114,78.966270 197.028488,78.016205 201.575562,76.860008 
	C194.021362,73.425217 189.198318,74.518517 186.261002,79.816353 
	C187.149277,79.877373 187.944763,79.932014 189.555725,79.916328 
M142.121414,139.419327 
	C145.504852,142.152161 148.967804,142.330444 154.017944,139.579178 
	C148.625320,138.096588 144.594421,136.988388 140.563522,135.880173 
	C140.387360,136.330704 140.211182,136.781235 140.035019,137.231766 
	C140.539047,137.800934 141.043076,138.370087 142.121414,139.419327 
M314.019348,289.655396 
	C313.329712,290.883392 312.640076,292.111389 311.997528,293.255554 
	C314.135559,294.291443 315.982330,295.186249 317.845001,296.088745 
	C318.879700,294.049835 319.801361,292.233643 320.637238,290.586517 
	C318.993500,289.595795 317.655182,288.621735 316.169769,287.997772 
	C315.734863,287.815033 314.881866,288.627594 314.019348,289.655396 
M343.169220,160.069839 
	C340.735596,161.451187 338.302002,162.832550 334.909912,164.757950 
	C342.821136,166.406189 345.572357,164.594391 345.992645,158.525436 
	C345.177612,158.995331 344.479553,159.397781 343.169220,160.069839 
M318.952667,154.786057 
	C317.758850,155.045853 316.565063,155.305634 315.003143,155.645523 
	C321.082367,160.236115 324.816833,159.998993 328.859314,154.765976 
	C325.641693,154.765976 322.728851,154.765976 318.952667,154.786057 
M184.256989,117.808388 
	C180.468506,121.967888 180.921494,126.436218 186.476227,131.189529 
	C185.810501,126.320557 185.267242,122.347412 184.256989,117.808388 
M194.962708,138.386047 
	C195.249786,140.810577 195.536880,143.235107 195.823959,145.659637 
	C196.411682,145.571899 196.999405,145.484161 197.587112,145.396423 
	C198.224197,141.876266 198.861282,138.356110 199.498367,134.835938 
	C199.061447,134.701447 198.624527,134.566940 198.187607,134.432449 
	C197.229843,135.532394 196.272064,136.632339 194.962708,138.386047 
M334.697815,151.705261 
	C339.142029,154.290497 340.923553,154.019730 343.575958,150.290543 
	C340.120483,149.589737 336.710022,148.898056 332.024017,147.947678 
	C333.331299,149.892502 333.764252,150.536575 334.697815,151.705261 
M155.239868,131.278214 
	C153.720612,130.963715 152.201355,130.649231 150.224457,130.240005 
	C153.693558,136.549042 155.551163,137.256485 161.142944,134.586014 
	C159.258667,133.518555 157.576843,132.565796 155.239868,131.278214 
M326.349335,330.596985 
	C327.204865,328.926025 328.060394,327.255035 328.900482,325.614197 
	C327.019440,324.631958 325.445709,323.810150 323.755615,322.927612 
	C322.846985,324.735809 321.997131,326.426941 321.169495,328.073883 
	C322.804535,329.004333 324.222900,329.811523 326.349335,330.596985 
M225.104889,85.498222 
	C223.780991,82.939224 222.457092,80.380219 221.133194,77.821220 
	C220.605072,78.122925 220.076950,78.424622 219.548828,78.726318 
	C219.020081,82.428947 219.541641,85.513718 225.104889,85.498222 
M202.955261,156.328690 
	C205.488525,153.083908 205.619080,149.624939 204.459366,145.014999 
	C200.908768,148.899734 200.033127,152.115891 202.955261,156.328690 
M308.155579,341.543488 
	C307.350800,341.078156 306.546021,340.612854 305.592896,340.061737 
	C304.828491,341.797638 304.198456,343.228424 303.500305,344.813843 
	C305.185974,345.636566 306.579773,346.316864 308.840393,347.420227 
	C308.840393,345.128418 308.840393,343.477142 308.155579,341.543488 
z"/>
<path fill="#3F3A24" opacity="1.000000" stroke="none" 
	d="
M206.603119,86.132866 
	C220.019516,91.183182 231.865280,98.664543 242.014862,108.831139 
	C243.278625,110.097031 244.968811,110.937187 246.799133,112.016335 
	C247.136871,112.058052 247.058273,112.053574 247.058273,112.053574 
	C257.715546,120.896706 267.632690,130.439804 274.703217,142.507172 
	C278.321259,148.682098 281.557526,155.079895 285.009491,161.353210 
	C289.079071,168.748932 293.900360,175.455795 301.715179,179.410721 
	C302.349030,179.731506 302.760315,180.492035 302.868958,182.014587 
	C301.795654,181.758957 300.671173,181.631760 299.657104,181.227524 
	C290.909882,177.740677 284.855133,171.220505 279.953735,163.473129 
	C275.056641,155.732590 270.290497,147.909058 265.369415,140.184052 
	C264.499146,138.817871 263.150787,137.756256 261.592133,136.859207 
	C264.250183,144.997971 267.768372,152.737549 266.753845,163.014084 
	C255.058731,129.053604 233.352219,107.081726 200.169418,97.171684 
	C174.412933,89.479507 143.414444,93.311501 124.245239,103.506577 
	C125.450943,103.433205 126.694138,103.525116 127.856697,103.261459 
	C143.199661,99.781761 158.495560,98.832489 173.687515,104.009392 
	C186.151199,108.256607 195.971893,115.832848 202.582016,127.316277 
	C203.479324,128.875122 203.841644,130.741928 204.577881,132.822861 
	C203.554810,132.695236 203.296036,132.735535 203.237213,132.645386 
	C186.662643,107.241173 162.229736,103.495819 135.051788,108.455719 
	C115.705719,111.986313 98.520683,120.653419 82.921318,132.592438 
	C75.241150,138.470459 73.642029,147.552795 70.052719,155.861160 
	C82.126167,147.982071 95.663887,144.314499 109.122826,140.283401 
	C118.654694,137.428513 127.938469,133.723038 137.258911,130.201233 
	C139.411545,129.387863 141.261581,127.773705 143.250870,126.528046 
	C143.589310,126.950859 143.927734,127.373672 144.266174,127.796486 
	C141.126556,130.767502 138.384079,134.398041 134.766983,136.576111 
	C126.520775,141.541672 117.936859,145.977402 109.317932,150.283691 
	C101.646263,154.116699 93.742905,157.485992 86.098694,161.743134 
	C99.733452,159.066071 113.214966,155.486526 127.925117,161.937134 
	C107.271675,160.117950 90.055740,165.138123 75.671532,178.627335 
	C68.024185,185.798874 63.341343,194.005829 62.877266,205.136276 
	C61.319027,242.509338 70.532211,275.601288 99.592766,300.926758 
	C117.637413,316.652191 138.561707,324.909973 163.027283,322.296112 
	C179.962646,320.486755 197.807266,309.120056 200.772598,290.043030 
	C200.859970,289.480927 201.151733,288.950562 201.348206,288.405396 
	C201.817276,288.517853 202.286331,288.630280 202.755386,288.742737 
	C201.731964,293.738434 200.708542,298.734131 199.712769,303.594849 
	C206.817871,302.950226 215.444473,287.378967 222.034393,261.746887 
	C222.933151,263.921753 223.819550,265.061798 223.812225,266.196075 
	C223.633728,293.794891 212.148514,314.964813 187.799774,328.574127 
	C173.172012,336.750061 157.274323,338.415558 140.480728,336.850861 
	C140.874771,337.443146 141.016342,337.935760 141.282837,338.016571 
	C160.269302,343.775726 179.187592,343.639069 197.396164,335.590790 
	C208.733093,330.579803 217.417938,321.939514 223.371216,310.951324 
	C229.477554,299.680603 234.676102,287.873322 241.394882,276.994415 
	C246.050842,269.455566 252.586075,263.072021 258.347961,256.228119 
	C259.075012,255.364517 260.173523,254.787003 261.167053,254.188416 
	C261.527313,253.971359 262.084106,254.080521 263.122314,253.992325 
	C262.774811,254.819992 262.701447,255.461533 262.341949,255.782913 
	C253.044235,264.094055 247.324722,274.770416 242.232941,285.896362 
	C237.800156,295.582336 233.218384,305.200134 228.392853,315.407288 
	C228.113876,316.240540 228.144531,316.514618 228.175171,316.788696 
	C228.492462,316.570007 228.809784,316.351318 229.127106,316.132629 
	C233.360306,312.749908 237.394058,309.071838 241.870102,306.048676 
	C250.046341,300.526367 258.484344,295.391663 267.397247,289.889587 
	C268.650452,289.199677 269.319550,288.715454 269.988647,288.231232 
	C286.543732,282.269714 302.901337,275.969086 314.778412,261.846619 
	C311.938171,275.383118 299.610565,280.827026 290.946869,289.556274 
	C289.723633,289.901337 287.834961,290.130249 286.233826,290.932770 
	C269.888062,299.125580 255.150284,309.537018 242.114868,322.435638 
	C227.890152,336.511108 211.598572,347.141937 191.556412,351.048615 
	C191.033920,351.150452 190.568909,351.547241 190.190826,352.287659 
	C210.855469,354.995789 231.439041,354.497925 250.796387,346.737488 
	C270.366943,338.891541 284.511688,324.063049 294.977539,305.699158 
	C295.491974,305.960480 296.006439,306.221802 296.520874,306.483124 
	C295.321106,309.298553 294.261078,312.184570 292.883850,314.910278 
	C291.385498,317.875793 289.707367,320.767151 287.895386,323.552795 
	C286.098846,326.314697 284.038086,328.904724 282.479248,332.087524 
	C293.730591,327.834229 302.850830,320.283417 311.155457,311.962921 
	C319.554565,303.547760 327.055328,294.235992 335.202606,285.514465 
	C325.061340,307.371338 309.037415,324.389526 289.841980,339.397888 
	C289.254364,339.746643 289.074127,339.865417 288.950287,340.069794 
	C275.875793,348.430817 262.338867,355.759949 247.506577,360.695496 
	C156.582031,390.951569 57.562782,330.556793 42.823620,235.732086 
	C29.669638,151.105667 81.887077,73.760483 164.722000,55.482342 
	C196.078781,48.563236 226.615463,51.862041 256.207458,64.185524 
	C257.706818,64.809937 259.011719,65.901405 260.148529,67.377663 
	C244.959000,62.685673 229.627579,59.886806 213.159668,59.744556 
	C214.095123,60.456978 214.418289,60.889843 214.819702,60.982044 
	C235.246094,65.673714 251.993286,76.767365 266.960510,90.942459 
	C275.184784,98.731476 283.142731,106.818146 291.628448,114.308784 
	C296.967499,119.021774 303.063049,122.877457 308.815521,127.122734 
	C310.028229,128.017700 311.224823,128.934509 312.100281,130.338135 
	C302.090759,128.044479 293.272766,123.412476 284.443268,117.613495 
	C283.896088,117.690598 283.796753,117.998917 283.697418,118.307236 
	C286.334076,129.158722 291.073120,139.068756 298.058868,147.972717 
	C297.428162,148.370056 296.797485,148.767395 296.166779,149.164734 
	C292.301331,144.099991 288.392639,139.067291 284.600128,133.948517 
	C283.620483,132.626266 282.771545,131.111008 282.257782,129.554016 
	C273.085358,101.756844 249.671814,89.285706 225.543823,78.658806 
	C201.451447,68.047607 175.865234,67.156494 150.154144,72.814110 
	C138.297043,75.423218 129.156845,83.107208 119.441628,89.994102 
	C134.325790,84.939117 149.279892,80.411842 165.958160,79.994339 
	C168.487976,80.016335 170.154892,79.998238 171.821793,79.980141 
	C181.862930,81.529411 191.904068,83.078682 202.643890,84.744095 
	C204.429428,85.284454 205.516266,85.708656 206.603119,86.132866 
z"/>
<path fill="#171718" opacity="1.000000" stroke="none" 
	d="
M175.895325,226.990479 
	C174.733124,225.722961 173.537582,224.761734 172.225922,224.000641 
	C167.935501,221.511108 163.159958,219.633499 159.383713,216.531281 
	C152.670273,211.016083 152.775665,204.100479 159.740204,198.926376 
	C164.586899,195.325684 170.302673,192.894775 174.759613,190.423935 
	C174.759613,184.700058 174.259048,179.054291 174.867233,173.530594 
	C176.017227,163.086212 182.690094,159.412949 192.190201,164.003922 
	C197.064468,166.359436 201.435226,169.756912 206.061447,172.701263 
	C210.157944,169.988953 214.332474,166.638687 219.000504,164.254837 
	C229.085068,159.104935 236.085281,162.969940 237.041000,174.278030 
	C237.483917,179.518585 236.691223,184.863571 236.433807,190.728409 
	C238.489258,191.560257 241.132401,192.456467 243.613464,193.681076 
	C246.287201,195.000824 248.996643,196.379807 251.363083,198.166580 
	C259.289124,204.151215 259.397461,211.560715 251.439148,217.429077 
	C248.003906,219.962204 243.939590,221.652527 240.121017,223.649185 
	C238.970627,224.250687 237.685623,224.594711 236.575134,225.014084 
	C236.839005,230.363220 237.496460,235.489609 237.261703,240.574814 
	C236.709335,252.540863 229.301773,256.846558 218.576691,251.384857 
	C214.185165,249.148483 210.275040,245.966766 206.332382,243.339371 
	C201.568817,246.231552 196.880524,249.763489 191.657120,252.098221 
	C182.471069,256.204193 176.101639,252.638885 174.975830,242.686356 
	C174.409805,237.682480 175.479034,232.493622 175.895325,226.990479 
M194.858429,221.911987 
	C196.320221,222.785034 197.715057,224.267761 199.254150,224.436783 
	C214.517303,226.113007 216.090118,225.083984 223.206451,211.616226 
	C224.746750,208.701187 224.490158,206.582474 223.028030,203.860260 
	C216.024017,190.819962 216.089813,190.890640 201.391251,191.031876 
	C197.796921,191.066422 195.569260,192.228592 193.819794,195.385651 
	C185.236038,210.875793 185.380386,205.085022 193.623566,220.010345 
	C193.864792,220.447128 194.147079,220.861252 194.858429,221.911987 
M165.390427,216.216125 
	C169.222061,217.997528 173.053680,219.778931 176.338150,221.305954 
	C183.168488,212.152756 182.482132,203.604553 176.238327,193.968399 
	C171.150131,197.070663 165.797821,199.915253 160.941177,203.442352 
	C157.706909,205.791245 158.026825,209.230759 160.691849,212.166397 
	C161.911423,213.509811 163.402573,214.606720 165.390427,216.216125 
M210.907547,241.250336 
	C215.609924,243.962631 220.178513,246.955795 225.064285,249.283081 
	C228.048798,250.704727 230.714020,249.046387 231.945786,246.064758 
	C234.678101,239.450851 233.505081,232.876373 231.961197,226.134155 
	C229.615997,226.570618 227.948074,227.267258 226.363785,227.111816 
	C217.530090,226.245071 214.271820,233.207199 209.943649,238.634521 
	C209.647598,239.005768 210.175461,240.034058 210.907547,241.250336 
M232.768631,172.292694 
	C230.502487,166.031448 228.159821,164.557236 222.400757,167.256821 
	C217.597931,169.508163 213.314651,172.867828 209.275543,175.435165 
	C213.938797,185.884674 221.380783,189.852585 232.902267,188.957306 
	C232.902267,183.895554 232.902267,178.521332 232.768631,172.292694 
M184.694839,249.471588 
	C192.415985,249.126923 197.748932,244.504059 202.723053,240.022018 
	C198.238480,230.012207 190.698242,226.044617 179.004578,227.118958 
	C179.004578,232.349640 178.535812,237.793594 179.225037,243.086761 
	C179.519012,245.344513 182.231384,247.287369 184.694839,249.471588 
M178.872360,182.251877 
	C179.327972,184.637772 179.783585,187.023666 180.139511,188.887482 
	C191.046951,190.104919 198.156906,185.464767 202.671219,175.877182 
	C200.826447,174.416245 198.774780,172.447403 196.407547,170.991776 
	C192.101913,168.344284 187.470871,164.098053 182.363464,167.174240 
	C177.361267,170.187119 178.414032,176.169693 178.872360,182.251877 
M253.118469,208.328949 
	C251.849762,202.030167 243.927826,196.447403 235.136276,195.383926 
	C228.825119,203.993347 229.275467,212.466736 235.520950,220.745148 
	C244.560944,218.290298 250.030212,214.654419 253.118469,208.328949 
M229.575745,222.493149 
	C229.121735,219.483994 228.667709,216.474854 228.213699,213.465714 
	C227.701996,213.489197 227.190277,213.512680 226.678574,213.536163 
	C224.822052,216.783020 222.965546,220.029877 220.625565,224.122269 
	C223.993744,223.542114 226.420120,223.124191 229.575745,222.493149 
M226.774429,201.993271 
	C228.148071,199.453552 229.521698,196.913834 231.311020,193.605560 
	C227.345108,192.913864 224.506561,192.418808 220.771194,191.767319 
	C222.866669,195.535385 224.527145,198.521240 226.774429,201.993271 
M189.853500,223.875626 
	C188.451294,220.416153 187.049072,216.956680 185.646866,213.497208 
	C185.175888,213.592087 184.704910,213.686966 184.233932,213.781845 
	C183.309128,216.477203 182.384323,219.172546 181.268753,222.423889 
	C184.272400,222.971191 186.680435,223.409958 189.853500,223.875626 
M206.977890,180.404861 
	C204.589554,182.248428 202.201233,184.091980 199.812912,185.935547 
	C200.103531,186.255173 200.394150,186.574799 200.684784,186.894424 
	C204.308838,186.894424 207.932892,186.894424 212.401505,186.894424 
	C210.366379,184.430496 208.923889,182.684052 206.977890,180.404861 
M188.013855,197.364197 
	C188.892258,195.771729 189.770645,194.179260 191.126343,191.721466 
	C187.214508,192.449127 184.536301,192.947311 181.238327,193.560791 
	C182.390884,196.757996 183.345383,199.405762 184.640076,202.997223 
	C186.001266,200.743332 186.820602,199.386688 188.013855,197.364197 
M201.997940,231.855484 
	C203.278473,233.301041 204.559021,234.746582 206.227859,236.630463 
	C208.261673,234.077362 210.004730,231.889252 212.595718,228.636719 
	C208.277359,228.636719 205.229752,228.567444 202.197021,228.748001 
	C201.906052,228.765320 201.707703,230.338120 201.997940,231.855484 
z"/>
<path fill="#5E851B" opacity="1.000000" stroke="none" 
	d="
M360.700714,168.521805 
	C355.547943,177.268494 347.860687,182.031067 337.339172,182.673553 
	C336.776184,182.128281 336.645111,182.001572 336.608917,181.851913 
	C336.576630,181.718414 336.605255,181.460876 336.682159,181.426559 
	C337.994781,180.841003 339.319122,180.281693 340.640869,179.716583 
	C340.541473,179.401154 340.442078,179.085724 340.342712,178.770279 
	C335.895569,179.500458 331.448456,180.230621 327.001343,180.960785 
	C325.092316,180.960785 323.183289,180.960785 321.274292,180.960785 
	C321.133575,180.538315 320.992889,180.115845 320.852173,179.693375 
	C322.745117,178.686447 324.534576,177.324661 326.549835,176.737289 
	C333.366669,174.750290 340.268738,173.057266 347.127747,171.212921 
	C351.116791,170.140289 355.085785,168.993240 359.651306,168.034683 
	C360.392761,168.300385 360.546722,168.411102 360.700714,168.521805 
z"/>
<path fill="#5F851C" opacity="1.000000" stroke="none" 
	d="
M297.548340,197.437225 
	C296.179504,192.944824 295.031158,188.739532 293.810455,184.269363 
	C306.632568,184.063370 309.132904,195.664276 316.147644,201.823517 
	C309.824219,204.884842 303.608734,203.460831 297.548340,197.437225 
z"/>
<path fill="#60861D" opacity="1.000000" stroke="none" 
	d="
M277.346222,44.247715 
	C278.574646,44.885990 279.462585,45.339302 280.302582,45.868668 
	C280.508057,45.998161 280.556549,46.376682 280.753052,46.806637 
	C271.489899,49.730553 264.864685,59.411240 253.608582,57.075623 
	C262.121368,41.602509 265.286224,41.579288 277.346222,44.247715 
z"/>
<path fill="#648923" opacity="1.000000" stroke="none" 
	d="
M299.001770,94.881157 
	C301.511658,96.787292 303.716156,98.474304 306.660858,100.727730 
	C295.544128,102.249565 286.604218,98.996353 277.790100,93.449295 
	C285.294037,90.110222 292.131042,90.172722 299.001770,94.881157 
z"/>
<path fill="#628821" opacity="1.000000" stroke="none" 
	d="
M313.908569,108.727943 
	C318.484619,109.692772 322.612061,110.660103 326.912933,111.668091 
	C319.147949,118.078079 308.698273,118.296738 297.748413,111.184929 
	C302.985596,110.366768 308.222778,109.548607 313.908569,108.727943 
z"/>
<path fill="#678B28" opacity="1.000000" stroke="none" 
	d="
M124.674507,151.715378 
	C127.620117,147.330780 131.701385,146.142624 136.267288,146.058578 
	C139.693375,145.995529 143.121567,146.046127 146.779099,146.046127 
	C142.274841,153.335968 135.138550,155.952530 122.965721,154.871140 
	C123.493538,153.819763 123.950592,152.909348 124.674507,151.715378 
z"/>
<path fill="#678B27" opacity="1.000000" stroke="none" 
	d="
M310.899689,169.077209 
	C313.198120,167.756348 315.354462,165.900131 317.829102,165.243378 
	C321.309296,164.319763 325.025726,164.286270 328.725403,163.862488 
	C325.099823,172.120346 317.519012,175.896439 306.212708,175.013428 
	C307.627808,172.912766 308.962555,170.931442 310.752747,169.288116 
	C311.916138,169.626099 312.624115,169.626099 313.332092,169.626099 
	C313.326630,169.443130 313.321136,169.260178 313.315674,169.077209 
	C312.510345,169.077209 311.705017,169.077209 310.899689,169.077209 
z"/>
<path fill="#658924" opacity="1.000000" stroke="none" 
	d="
M236.996902,138.012772 
	C237.147003,138.702515 237.486420,139.977509 237.420288,139.998901 
	C230.502029,142.237015 224.931717,148.805984 216.658539,146.478516 
	C220.990814,136.496979 226.087738,134.286209 236.658295,138.034698 
	C237.045273,138.023361 236.996902,138.012772 236.996902,138.012772 
z"/>
<path fill="#61861F" opacity="1.000000" stroke="none" 
	d="
M247.146210,112.096298 
	C248.454254,106.274246 254.751740,102.986374 260.918457,105.441711 
	C264.190216,106.744377 267.068878,109.034370 271.187531,111.519890 
	C262.417572,113.537079 255.121185,113.549782 247.437286,111.837624 
	C247.058273,112.053574 247.136871,112.058052 247.146210,112.096298 
z"/>
<path fill="#638822" opacity="1.000000" stroke="none" 
	d="
M103.336967,134.311096 
	C100.390739,136.879196 97.651733,139.155396 94.500404,141.774246 
	C92.863342,128.911316 101.363075,122.028412 110.058250,124.286003 
	C107.889603,127.526352 105.716896,130.772766 103.336967,134.311096 
z"/>
<path fill="#628721" opacity="1.000000" stroke="none" 
	d="
M88.287689,180.272675 
	C94.706871,181.912231 100.723976,183.579056 106.882050,185.284943 
	C102.296944,192.063934 91.581055,192.902420 84.981758,180.853195 
	C86.018890,180.655609 86.952255,180.477783 88.287689,180.272675 
z"/>
<path fill="#648923" opacity="1.000000" stroke="none" 
	d="
M273.370605,165.705933 
	C273.696075,164.816483 274.021576,163.927032 274.466339,162.711670 
	C280.539368,169.805161 282.810699,177.594879 281.537079,187.189026 
	C276.856232,182.419525 272.243164,178.336639 271.815979,171.374054 
	C272.806122,170.948181 274.037811,170.738464 274.029114,170.618896 
	C273.909546,168.973984 273.619110,167.341492 273.370605,165.705933 
M275.503418,175.752548 
	C275.611420,175.654877 275.794067,175.565720 275.806488,175.457123 
	C275.818848,175.348816 275.660583,175.220978 275.577148,175.101730 
	C275.469086,175.199341 275.361023,175.296967 275.503418,175.752548 
M274.484833,173.921005 
	C274.555939,173.713120 274.627075,173.505249 274.698212,173.297363 
	C274.503510,173.360947 274.308777,173.424530 274.484833,173.921005 
z"/>
<path fill="#668A26" opacity="1.000000" stroke="none" 
	d="
M259.595276,164.045105 
	C260.156403,161.110977 261.165222,161.128494 262.800781,162.904160 
	C266.156860,166.547745 266.788635,170.812561 265.566711,175.397415 
	C264.803345,178.261536 263.691559,181.032776 262.577850,184.311737 
	C257.267365,178.030212 256.721466,171.455185 259.595276,164.045105 
z"/>
<path fill="#638822" opacity="1.000000" stroke="none" 
	d="
M126.854736,120.287010 
	C125.075157,123.334572 123.777794,126.252266 121.865723,128.687256 
	C119.412598,131.811249 116.465271,134.547195 112.894608,138.338165 
	C112.822731,126.016708 115.155441,121.411049 121.962273,119.511719 
	C123.502762,119.081871 125.355034,119.769424 126.854736,120.287010 
z"/>
<path fill="#628821" opacity="1.000000" stroke="none" 
	d="
M143.487610,113.359512 
	C140.808060,117.136810 138.515839,120.748444 135.930038,124.135971 
	C134.915604,125.464951 133.243683,126.292038 131.676331,127.497589 
	C129.214737,115.148834 134.813232,108.570869 145.302750,111.292900 
	C144.719116,111.976997 144.238297,112.540588 143.487610,113.359512 
z"/>
<path fill="#668A26" opacity="1.000000" stroke="none" 
	d="
M212.552826,133.834259 
	C212.172073,128.414948 215.836334,124.452385 221.686356,124.043129 
	C223.765228,123.897697 225.891907,124.435570 228.311081,124.695251 
	C221.265625,133.886780 218.199936,136.307205 211.363068,138.008270 
	C211.766846,136.590836 212.103546,135.408813 212.552826,133.834259 
z"/>
<path fill="#638822" opacity="1.000000" stroke="none" 
	d="
M248.194870,147.358307 
	C249.781998,145.058594 251.139145,143.059036 252.533127,141.005173 
	C258.670349,147.296188 254.178940,154.783325 255.438446,161.557114 
	C249.262787,159.599747 246.673431,154.733276 248.194870,147.358307 
z"/>
<path fill="#688C29" opacity="1.000000" stroke="none" 
	d="
M308.938080,147.250336 
	C307.510040,146.349457 306.416809,145.629654 304.346832,144.266754 
	C308.814056,142.732437 312.463531,140.614914 316.212463,140.421036 
	C320.424774,140.203217 323.710785,143.103943 326.611450,148.216492 
	C320.141327,147.923523 314.707092,147.677460 308.938080,147.250336 
z"/>
<path fill="#628720" opacity="1.000000" stroke="none" 
	d="
M237.513687,35.437584 
	C232.337891,39.175545 228.638245,44.467064 221.927032,46.732456 
	C224.898926,36.026623 231.802475,31.217878 241.199661,29.357641 
	C242.018280,29.195593 242.944855,29.579027 243.821289,29.709082 
	C243.366837,30.608551 243.126968,31.773678 242.412292,32.351021 
	C241.015121,33.479694 239.352783,34.280121 237.513687,35.437584 
z"/>
<path fill="#638822" opacity="1.000000" stroke="none" 
	d="
M155.132874,121.123260 
	C153.842651,120.691521 152.939667,120.360413 151.716354,119.911850 
	C154.956848,116.302704 157.374527,111.982262 162.985672,113.403259 
	C167.071152,114.437897 169.916336,116.900543 171.068787,121.223900 
	C165.605042,121.223900 160.562576,121.223900 155.132874,121.123260 
z"/>
<path fill="#648923" opacity="1.000000" stroke="none" 
	d="
M324.080444,193.864822 
	C320.881042,193.005707 318.088287,192.148788 314.487671,191.044006 
	C315.791534,190.047256 316.328705,189.636597 317.144775,189.012741 
	C316.046173,188.056763 314.996796,187.143600 313.885803,186.176849 
	C319.909943,182.818024 322.605682,183.621414 332.908691,191.990112 
	C329.794525,192.684158 327.140808,193.275604 324.080444,193.864822 
z"/>
<path fill="#668B27" opacity="1.000000" stroke="none" 
	d="
M272.211761,76.827316 
	C275.222473,77.177383 278.579254,77.399315 281.449402,78.697372 
	C284.015991,79.858154 286.045776,82.205803 288.297913,84.018082 
	C281.235596,89.740059 275.189423,87.184425 272.211761,76.827316 
z"/>
<path fill="#648924" opacity="1.000000" stroke="none" 
	d="
M87.687561,196.499603 
	C80.956902,201.632156 74.869560,200.656723 69.594543,193.826950 
	C75.883820,189.873459 82.327217,192.336395 89.236847,193.210175 
	C88.753899,194.343475 88.355988,195.277222 87.687561,196.499603 
z"/>
<path fill="#709235" opacity="1.000000" stroke="none" 
	d="
M196.578629,33.353676 
	C201.729279,37.063576 201.981903,42.465309 203.201019,48.905037 
	C196.660980,41.961639 190.956161,35.904968 185.251343,29.848299 
	C185.292496,29.513666 185.333649,29.179035 185.374817,28.844402 
	C189.015121,30.270704 192.655441,31.697004 196.578629,33.353676 
z"/>
<path fill="#61871F" opacity="1.000000" stroke="none" 
	d="
M145.099045,158.090973 
	C150.150848,158.613327 155.202637,159.135696 160.314606,159.664276 
	C156.916290,167.125320 145.382874,168.803726 138.815704,162.311325 
	C138.680939,162.178085 139.525818,161.053909 140.694641,160.507370 
	C144.379730,160.992447 147.283829,161.362183 150.187927,161.731903 
	C150.238037,161.512207 150.288132,161.292511 150.338242,161.072815 
	C148.591843,160.078857 146.845444,159.084915 145.099045,158.090973 
z"/>
<path fill="#74953A" opacity="1.000000" stroke="none" 
	d="
M328.190308,133.979507 
	C336.515472,128.834366 344.649292,131.374481 346.992401,139.430862 
	C340.045715,138.341629 333.034271,137.242249 325.505859,136.061813 
	C326.484192,135.282394 327.186981,134.722519 328.190308,133.979507 
z"/>
<path fill="#739539" opacity="1.000000" stroke="none" 
	d="
M305.064636,71.663155 
	C307.089722,72.765884 308.752411,73.733459 310.415131,74.701035 
	C310.320831,75.003189 310.226532,75.305336 310.132233,75.607483 
	C301.410858,75.607483 292.689484,75.607483 283.552460,75.607483 
	C290.055481,70.351372 296.836609,68.290665 305.064636,71.663155 
z"/>
<path fill="#628821" opacity="1.000000" stroke="none" 
	d="
M125.769196,172.948181 
	C125.014359,170.692596 124.300774,168.739105 123.589783,166.792694 
	C127.076164,165.985046 127.076164,165.985046 140.690369,174.459579 
	C135.536652,178.766586 130.692566,178.372910 125.769196,172.948181 
z"/>
<path fill="#648924" opacity="1.000000" stroke="none" 
	d="
M311.916412,82.967873 
	C317.232758,79.415520 324.816193,80.077881 329.507874,84.375328 
	C325.268829,85.536758 320.958527,86.869972 316.573120,87.875938 
	C312.278595,88.861046 307.907562,89.512848 303.570129,90.310944 
	C303.209320,89.820717 302.848541,89.330490 302.487732,88.840263 
	C303.449982,88.343407 304.412201,87.846558 306.042542,87.136826 
	C310.132172,85.803543 313.553772,84.683144 316.975372,83.562744 
	C316.933197,83.364456 316.891052,83.166161 316.848907,82.967873 
	C315.204742,82.967873 313.560577,82.967873 311.916412,82.967873 
z"/>
<path fill="#628720" opacity="1.000000" stroke="none" 
	d="
M103.185089,172.978622 
	C101.700638,171.875427 100.478737,171.048340 98.818367,169.924484 
	C107.286339,165.380341 112.023987,171.485229 118.117355,173.757751 
	C115.513351,177.001450 112.243126,177.902817 108.546234,177.449478 
	C106.069702,177.145798 103.591423,176.536057 103.185089,172.978622 
z"/>
<path fill="#638822" opacity="1.000000" stroke="none" 
	d="
M232.035629,91.178246 
	C231.983047,89.005501 231.737198,87.115166 231.492935,85.236969 
	C237.320663,85.147575 238.375305,86.526733 241.926544,99.023415 
	C236.088287,99.684212 231.853302,96.508141 232.035629,91.178246 
z"/>
<path fill="#6A8E2D" opacity="1.000000" stroke="none" 
	d="
M209.314514,116.480743 
	C211.977951,113.961960 214.476990,111.777664 217.454498,109.175179 
	C219.015625,120.591614 215.797424,124.974747 207.660690,123.717705 
	C208.157059,121.417404 208.653595,119.116318 209.314514,116.480743 
z"/>
<path fill="#74953A" opacity="1.000000" stroke="none" 
	d="
M326.755402,120.629814 
	C332.693054,117.043358 337.983368,117.784195 344.094086,122.188248 
	C336.583252,123.785873 330.059631,125.173523 323.535980,126.561172 
	C323.333832,126.134712 323.131714,125.708252 322.929596,125.281799 
	C324.108490,123.812149 325.287384,122.342506 326.755402,120.629814 
z"/>
<path fill="#61861F" opacity="1.000000" stroke="none" 
	d="
M291.956360,152.308777 
	C292.822662,151.441025 293.960297,150.379227 294.519897,150.626343 
	C298.024780,152.174011 299.786102,154.994125 299.490631,158.893921 
	C299.304382,161.352158 298.975189,163.799576 298.706940,166.281052 
	C292.711182,164.202194 291.615021,161.963882 291.956360,152.308777 
z"/>
<path fill="#678B28" opacity="1.000000" stroke="none" 
	d="
M237.048264,138.048859 
	C236.115021,135.729401 235.071976,133.418106 234.315277,131.016586 
	C234.118362,130.391602 234.815033,129.485077 235.101288,128.707870 
	C235.569321,129.092987 236.037323,129.478119 236.771988,130.082657 
	C236.901443,127.884117 237.025955,125.769646 237.172913,123.273872 
	C244.798477,126.831734 242.501419,133.098770 242.889847,139.110962 
	C240.823074,138.393875 239.168427,137.819794 237.255341,137.629242 
	C236.996902,138.012772 237.045273,138.023361 237.048264,138.048859 
z"/>
<path fill="#628720" opacity="1.000000" stroke="none" 
	d="
M192.450790,108.274483 
	C192.580139,105.040154 192.919861,102.135902 193.259140,99.235428 
	C199.753845,100.797096 200.910599,103.067429 201.008850,116.334114 
	C197.626312,113.202057 195.143723,110.903313 192.450790,108.274483 
z"/>
<path fill="#628821" opacity="1.000000" stroke="none" 
	d="
M257.051575,77.053131 
	C257.999268,74.793571 258.896515,72.921608 259.815735,71.003822 
	C265.058899,72.353905 265.058899,72.353905 266.469391,84.803909 
	C261.313049,84.773155 258.421936,82.094299 257.051575,77.053131 
z"/>
<path fill="#78983F" opacity="1.000000" stroke="none" 
	d="
M187.510437,49.012726 
	C182.020828,47.781261 176.906967,46.598312 171.833359,45.424675 
	C177.427307,41.366394 183.342682,42.306599 191.894135,49.061241 
	C190.158432,49.061241 189.022293,49.061241 187.510437,49.012726 
z"/>
<path fill="#799941" opacity="1.000000" stroke="none" 
	d="
M273.965393,64.019562 
	C271.115784,63.855907 268.721283,63.695042 265.768158,63.496643 
	C272.533905,58.097317 278.635864,58.570892 284.108124,64.702652 
	C280.668030,64.461082 277.544250,64.241722 273.965393,64.019562 
z"/>
<path fill="#719337" opacity="1.000000" stroke="none" 
	d="
M245.114380,42.970322 
	C246.263977,42.993565 247.030823,43.089001 247.937134,43.201790 
	C243.821991,48.812519 237.336792,52.331409 231.648270,50.802769 
	C236.009384,48.216019 240.370499,45.629265 245.114380,42.970322 
z"/>
<path fill="#2373A0" opacity="1.000000" stroke="none" 
	d="
M183.823822,305.966431 
	C183.283203,307.373169 182.896637,308.458740 182.507446,309.551697 
	C180.277557,308.423553 178.112823,307.328369 175.653168,306.083984 
	C176.746124,304.005707 177.921051,301.771545 179.125870,299.480530 
	C181.289902,300.584473 183.421753,301.672028 185.839462,302.905396 
	C185.224548,303.810425 184.601212,304.727875 183.823822,305.966431 
z"/>
<path fill="#7B9A44" opacity="1.000000" stroke="none" 
	d="
M209.513855,47.463661 
	C209.158005,45.681931 208.997116,43.741482 209.113983,41.817905 
	C209.281052,39.068329 209.651367,36.331097 209.923477,33.698936 
	C215.012299,37.135960 215.052475,41.515923 209.513855,47.463661 
z"/>
<path fill="#76973D" opacity="1.000000" stroke="none" 
	d="
M326.880066,100.980820 
	C322.794525,101.728012 319.101135,102.401253 315.050140,103.139679 
	C317.599091,97.377983 323.024536,96.300430 330.130249,100.012611 
	C328.891266,100.400284 328.081787,100.653572 326.880066,100.980820 
z"/>
<path fill="#6F9034" opacity="1.000000" stroke="none" 
	d="
M171.895844,79.630356 
	C170.154892,79.998238 168.487976,80.016335 166.403076,79.987122 
	C169.368393,75.457489 173.059372,71.590439 180.277908,73.093460 
	C177.143768,75.427513 174.556839,77.354042 171.895844,79.630356 
z"/>
<path fill="#789840" opacity="1.000000" stroke="none" 
	d="
M189.147980,79.951492 
	C187.944763,79.932014 187.149277,79.877373 186.261002,79.816353 
	C189.198318,74.518517 194.021362,73.425217 201.575562,76.860008 
	C197.028488,78.016205 193.292114,78.966270 189.147980,79.951492 
z"/>
<path fill="#7A9A43" opacity="1.000000" stroke="none" 
	d="
M141.834259,139.179291 
	C141.043076,138.370087 140.539047,137.800934 140.035019,137.231766 
	C140.211182,136.781235 140.387360,136.330704 140.563522,135.880173 
	C144.594421,136.988388 148.625320,138.096588 154.017944,139.579178 
	C148.967804,142.330444 145.504852,142.152161 141.834259,139.179291 
z"/>
<path fill="#2574A1" opacity="1.000000" stroke="none" 
	d="
M314.119934,289.319702 
	C314.881866,288.627594 315.734863,287.815033 316.169769,287.997772 
	C317.655182,288.621735 318.993500,289.595795 320.637238,290.586517 
	C319.801361,292.233643 318.879700,294.049835 317.845001,296.088745 
	C315.982330,295.186249 314.135559,294.291443 311.997528,293.255554 
	C312.640076,292.111389 313.329712,290.883392 314.119934,289.319702 
z"/>
<path fill="#7C9C46" opacity="1.000000" stroke="none" 
	d="
M343.475372,159.935028 
	C344.479553,159.397781 345.177612,158.995331 345.992645,158.525436 
	C345.572357,164.594391 342.821136,166.406189 334.909912,164.757950 
	C338.302002,162.832550 340.735596,161.451187 343.475372,159.935028 
z"/>
<path fill="#75963C" opacity="1.000000" stroke="none" 
	d="
M319.384338,154.776016 
	C322.728851,154.765976 325.641693,154.765976 328.859314,154.765976 
	C324.816833,159.998993 321.082367,160.236115 315.003143,155.645523 
	C316.565063,155.305634 317.758850,155.045853 319.384338,154.776016 
z"/>
<path fill="#75963C" opacity="1.000000" stroke="none" 
	d="
M184.490494,118.091331 
	C185.267242,122.347412 185.810501,126.320557 186.476227,131.189529 
	C180.921494,126.436218 180.468506,121.967888 184.490494,118.091331 
z"/>
<path fill="#76973D" opacity="1.000000" stroke="none" 
	d="
M195.138504,138.059174 
	C196.272064,136.632339 197.229843,135.532394 198.187607,134.432449 
	C198.624527,134.566940 199.061447,134.701447 199.498367,134.835938 
	C198.861282,138.356110 198.224197,141.876266 197.587112,145.396423 
	C196.999405,145.484161 196.411682,145.571899 195.823959,145.659637 
	C195.536880,143.235107 195.249786,140.810577 195.138504,138.059174 
z"/>
<path fill="#75963C" opacity="1.000000" stroke="none" 
	d="
M334.447510,151.442963 
	C333.764252,150.536575 333.331299,149.892502 332.024017,147.947678 
	C336.710022,148.898056 340.120483,149.589737 343.575958,150.290543 
	C340.923553,154.019730 339.142029,154.290497 334.447510,151.442963 
z"/>
<path fill="#BBCB9F" opacity="1.000000" stroke="none" 
	d="
M327.075989,181.344711 
	C331.448456,180.230621 335.895569,179.500458 340.342712,178.770279 
	C340.442078,179.085724 340.541473,179.401154 340.640869,179.716583 
	C339.319122,180.281693 337.994781,180.841003 336.682159,181.426559 
	C336.605255,181.460876 336.576630,181.718414 336.608917,181.851913 
	C336.645111,182.001572 336.776184,182.128281 336.939697,182.561737 
	C333.725800,182.481888 330.438202,182.105255 327.075989,181.344711 
z"/>
<path fill="#76973D" opacity="1.000000" stroke="none" 
	d="
M155.567444,131.445618 
	C157.576843,132.565796 159.258667,133.518555 161.142944,134.586014 
	C155.551163,137.256485 153.693558,136.549042 150.224457,130.240005 
	C152.201355,130.649231 153.720612,130.963715 155.567444,131.445618 
z"/>
<path fill="#2B77A3" opacity="1.000000" stroke="none" 
	d="
M325.995300,330.607849 
	C324.222900,329.811523 322.804535,329.004333 321.169495,328.073883 
	C321.997131,326.426941 322.846985,324.735809 323.755615,322.927612 
	C325.445709,323.810150 327.019440,324.631958 328.900482,325.614197 
	C328.060394,327.255035 327.204865,328.926025 325.995300,330.607849 
z"/>
<path fill="#2774A0" opacity="1.000000" stroke="none" 
	d="
M288.933899,340.424561 
	C289.074127,339.865417 289.254364,339.746643 289.656586,339.722961 
	C291.371643,340.593964 292.921112,341.455444 294.698547,342.443634 
	C293.904236,344.049927 293.084167,345.708252 292.204803,347.486511 
	C290.541687,346.671661 288.973236,345.903168 287.181915,345.025452 
	C287.754791,343.623871 288.336151,342.201630 288.933899,340.424561 
z"/>
<path fill="#3078A1" opacity="1.000000" stroke="none" 
	d="
M270.045959,287.910583 
	C269.319550,288.715454 268.650452,289.199677 267.756256,289.752655 
	C266.561768,288.824036 265.592346,287.826630 264.609589,286.815552 
	C265.257141,285.561523 265.919983,284.277893 266.740295,282.689301 
	C268.268707,283.388428 269.809570,284.093231 271.546661,284.887787 
	C270.998138,285.914673 270.550720,286.752319 270.045959,287.910583 
z"/>
<path fill="#799941" opacity="1.000000" stroke="none" 
	d="
M224.799149,85.745316 
	C219.541641,85.513718 219.020081,82.428947 219.548828,78.726318 
	C220.076950,78.424622 220.605072,78.122925 221.133194,77.821220 
	C222.457092,80.380219 223.780991,82.939224 224.799149,85.745316 
z"/>
<path fill="#6A8E2D" opacity="1.000000" stroke="none" 
	d="
M202.675156,156.074463 
	C200.033127,152.115891 200.908768,148.899734 204.459366,145.014999 
	C205.619080,149.624939 205.488525,153.083908 202.675156,156.074463 
z"/>
<path fill="#2C78A4" opacity="1.000000" stroke="none" 
	d="
M308.497986,341.684692 
	C308.840393,343.477142 308.840393,345.128418 308.840393,347.420227 
	C306.579773,346.316864 305.185974,345.636566 303.500305,344.813843 
	C304.198456,343.228424 304.828491,341.797638 305.592896,340.061737 
	C306.546021,340.612854 307.350800,341.078156 308.497986,341.684692 
z"/>
<path fill="#7A9549" opacity="1.000000" stroke="none" 
	d="
M206.751984,85.797218 
	C205.516266,85.708656 204.429428,85.284454 202.998260,84.765434 
	C204.469482,81.600296 206.604706,79.434006 211.180344,82.246384 
	C209.544052,83.475731 208.222458,84.468651 206.751984,85.797218 
z"/>
<path fill="#B7C899" opacity="1.000000" stroke="none" 
	d="
M311.953094,82.981628 
	C313.560577,82.967873 315.204742,82.967873 316.848907,82.967873 
	C316.891052,83.166161 316.933197,83.364456 316.975372,83.562744 
	C313.553772,84.683144 310.132172,85.803543 306.326599,86.926163 
	C307.095978,85.636284 308.249390,84.344200 309.889740,83.264206 
	C310.923553,83.291527 311.470459,83.106766 312.017334,82.921997 
	C312.017334,82.921997 311.989777,82.995377 311.953094,82.981628 
z"/>
<path fill="#AEC28D" opacity="1.000000" stroke="none" 
	d="
M144.760529,158.014038 
	C146.845444,159.084915 148.591843,160.078857 150.338242,161.072815 
	C150.288132,161.292511 150.238037,161.512207 150.187927,161.731903 
	C147.283829,161.362183 144.379730,160.992447 141.055328,160.435287 
	C141.897339,159.477600 143.159668,158.707352 144.760529,158.014038 
z"/>
<path fill="#B6C797" opacity="1.000000" stroke="none" 
	d="
M273.098236,165.853333 
	C273.619110,167.341492 273.909546,168.973984 274.029114,170.618896 
	C274.037811,170.738464 272.806122,170.948181 271.742432,170.961761 
	C271.831146,169.205246 272.328522,167.602966 273.098236,165.853333 
z"/>
<path fill="#648924" opacity="1.000000" stroke="none" 
	d="
M311.706390,82.768188 
	C311.470459,83.106766 310.923553,83.291527 310.233215,83.272972 
	C310.524994,82.917900 310.960236,82.766136 311.706390,82.768188 
z"/>
<path fill="#5E851B" opacity="1.000000" stroke="none" 
	d="
M360.027863,167.998901 
	C360.166748,167.645447 360.516602,167.482758 360.866486,167.320068 
	C360.921906,167.568649 360.977325,167.817215 360.866730,168.293793 
	C360.546722,168.411102 360.392761,168.300385 360.027863,167.998901 
z"/>
<path fill="#FBFBFB" opacity="1.000000" stroke="none" 
	d="
M228.967529,315.971466 
	C228.809784,316.351318 228.492462,316.570007 228.175171,316.788696 
	C228.144531,316.514618 228.113876,316.240540 228.278442,315.735107 
	C228.473663,315.503723 228.807953,315.810303 228.967529,315.971466 
z"/>
<path fill="#FBFBFB" opacity="1.000000" stroke="none" 
	d="
M283.820892,118.181190 
	C283.796753,117.998917 283.896088,117.690598 284.093506,117.592819 
	C284.191589,117.803352 283.944366,118.055145 283.820892,118.181190 
z"/>
<path fill="#F2F2F2" opacity="1.000000" stroke="none" 
	d="
M194.634338,221.598969 
	C194.147079,220.861252 193.864792,220.447128 193.623566,220.010345 
	C185.380386,205.085022 185.236038,210.875793 193.819794,195.385651 
	C195.569260,192.228592 197.796921,191.066422 201.391251,191.031876 
	C216.089813,190.890640 216.024017,190.819962 223.028030,203.860260 
	C224.490158,206.582474 224.746750,208.701187 223.206451,211.616226 
	C216.090118,225.083984 214.517303,226.113007 199.254150,224.436783 
	C197.715057,224.267761 196.320221,222.785034 194.634338,221.598969 
M214.398010,210.610794 
	C215.585709,204.188675 212.602615,199.547089 206.929504,198.990112 
	C201.501022,198.457123 196.974655,202.382080 197.050858,207.771683 
	C197.111374,212.052872 199.221069,215.354431 203.412491,216.264160 
	C207.912384,217.240875 211.924881,215.923477 214.398010,210.610794 
z"/>
<path fill="#F6F6F7" opacity="1.000000" stroke="none" 
	d="
M165.080490,216.015778 
	C163.402573,214.606720 161.911423,213.509811 160.691849,212.166397 
	C158.026825,209.230759 157.706909,205.791245 160.941177,203.442352 
	C165.797821,199.915253 171.150131,197.070663 176.238327,193.968399 
	C182.482132,203.604553 183.168488,212.152756 176.338150,221.305954 
	C173.053680,219.778931 169.222061,217.997528 165.080490,216.015778 
z"/>
<path fill="#F5F5F5" opacity="1.000000" stroke="none" 
	d="
M210.613861,241.003571 
	C210.175461,240.034058 209.647598,239.005768 209.943649,238.634521 
	C214.271820,233.207199 217.530090,226.245071 226.363785,227.111816 
	C227.948074,227.267258 229.615997,226.570618 231.961197,226.134155 
	C233.505081,232.876373 234.678101,239.450851 231.945786,246.064758 
	C230.714020,249.046387 228.048798,250.704727 225.064285,249.283081 
	C220.178513,246.955795 215.609924,243.962631 210.613861,241.003571 
z"/>
<path fill="#F5F6F6" opacity="1.000000" stroke="none" 
	d="
M232.835449,172.719910 
	C232.902267,178.521332 232.902267,183.895554 232.902267,188.957306 
	C221.380783,189.852585 213.938797,185.884674 209.275543,175.435165 
	C213.314651,172.867828 217.597931,169.508163 222.400757,167.256821 
	C228.159821,164.557236 230.502487,166.031448 232.835449,172.719910 
z"/>
<path fill="#F6F6F6" opacity="1.000000" stroke="none" 
	d="
M184.269821,249.422455 
	C182.231384,247.287369 179.519012,245.344513 179.225037,243.086761 
	C178.535812,237.793594 179.004578,232.349640 179.004578,227.118958 
	C190.698242,226.044617 198.238480,230.012207 202.723053,240.022018 
	C197.748932,244.504059 192.415985,249.126923 184.269821,249.422455 
z"/>
<path fill="#F6F6F6" opacity="1.000000" stroke="none" 
	d="
M178.825928,181.787216 
	C178.414032,176.169693 177.361267,170.187119 182.363464,167.174240 
	C187.470871,164.098053 192.101913,168.344284 196.407547,170.991776 
	C198.774780,172.447403 200.826447,174.416245 202.671219,175.877182 
	C198.156906,185.464767 191.046951,190.104919 180.139511,188.887482 
	C179.783585,187.023666 179.327972,184.637772 178.825928,181.787216 
z"/>
<path fill="#F7F7F7" opacity="1.000000" stroke="none" 
	d="
M253.063217,208.710022 
	C250.030212,214.654419 244.560944,218.290298 235.520950,220.745148 
	C229.275467,212.466736 228.825119,203.993347 235.136276,195.383926 
	C243.927826,196.447403 251.849762,202.030167 253.063217,208.710022 
z"/>
<path fill="#DCDDDD" opacity="1.000000" stroke="none" 
	d="
M229.211121,222.599701 
	C226.420120,223.124191 223.993744,223.542114 220.625565,224.122269 
	C222.965546,220.029877 224.822052,216.783020 226.678574,213.536163 
	C227.190277,213.512680 227.701996,213.489197 228.213699,213.465714 
	C228.667709,216.474854 229.121735,219.483994 229.211121,222.599701 
z"/>
<path fill="#DDDDDE" opacity="1.000000" stroke="none" 
	d="
M226.481018,201.750183 
	C224.527145,198.521240 222.866669,195.535385 220.771194,191.767319 
	C224.506561,192.418808 227.345108,192.913864 231.311020,193.605560 
	C229.521698,196.913834 228.148071,199.453552 226.481018,201.750183 
z"/>
<path fill="#E3E3E3" opacity="1.000000" stroke="none" 
	d="
M189.470978,223.862183 
	C186.680435,223.409958 184.272400,222.971191 181.268753,222.423889 
	C182.384323,219.172546 183.309128,216.477203 184.233932,213.781845 
	C184.704910,213.686966 185.175888,213.592087 185.646866,213.497208 
	C187.049072,216.956680 188.451294,220.416153 189.470978,223.862183 
z"/>
<path fill="#E5E5E5" opacity="1.000000" stroke="none" 
	d="
M207.229645,180.671234 
	C208.923889,182.684052 210.366379,184.430496 212.401505,186.894424 
	C207.932892,186.894424 204.308838,186.894424 200.684784,186.894424 
	C200.394150,186.574799 200.103531,186.255173 199.812912,185.935547 
	C202.201233,184.091980 204.589554,182.248428 207.229645,180.671234 
z"/>
<path fill="#E4E4E4" opacity="1.000000" stroke="none" 
	d="
M187.826889,197.697113 
	C186.820602,199.386688 186.001266,200.743332 184.640076,202.997223 
	C183.345383,199.405762 182.390884,196.757996 181.238327,193.560791 
	C184.536301,192.947311 187.214508,192.449127 191.126343,191.721466 
	C189.770645,194.179260 188.892258,195.771729 187.826889,197.697113 
z"/>
<path fill="#E8E8E8" opacity="1.000000" stroke="none" 
	d="
M201.732147,231.522156 
	C201.707703,230.338120 201.906052,228.765320 202.197021,228.748001 
	C205.229752,228.567444 208.277359,228.636719 212.595718,228.636719 
	C210.004730,231.889252 208.261673,234.077362 206.227859,236.630463 
	C204.559021,234.746582 203.278473,233.301041 201.732147,231.522156 
z"/>
<path fill="#FBFBFB" opacity="1.000000" stroke="none" 
	d="
M310.926025,169.055618 
	C311.705017,169.077209 312.510345,169.077209 313.315674,169.077209 
	C313.321136,169.260178 313.326630,169.443130 313.332092,169.626099 
	C312.624115,169.626099 311.916138,169.626099 311.100494,169.302643 
	C310.992828,168.979187 310.952393,169.034027 310.926025,169.055618 
z"/>
<path fill="#B6C797" opacity="1.000000" stroke="none" 
	d="
M275.378174,175.573578 
	C275.361023,175.296967 275.469086,175.199341 275.577148,175.101715 
	C275.660583,175.220978 275.818848,175.348816 275.806488,175.457123 
	C275.794067,175.565720 275.611420,175.654877 275.378174,175.573578 
z"/>
<path fill="#B6C797" opacity="1.000000" stroke="none" 
	d="
M274.299438,173.704559 
	C274.308777,173.424530 274.503510,173.360947 274.698212,173.297363 
	C274.627075,173.505249 274.555939,173.713120 274.299438,173.704559 
z"/>
<path fill="#0B0B0B" opacity="1.000000" stroke="none" 
	d="
M214.283936,210.982178 
	C211.924881,215.923477 207.912384,217.240875 203.412491,216.264160 
	C199.221069,215.354431 197.111374,212.052872 197.050858,207.771683 
	C196.974655,202.382080 201.501022,198.457123 206.929504,198.990112 
	C212.602615,199.547089 215.585709,204.188675 214.283936,210.982178 
z"/>
</svg>